<svg xmlns="http://www.w3.org/2000/svg" xmlns:se="http://svg-edit.googlecode.com" xmlns:xlink="http://www.w3.org/1999/xlink" xmlns:dc="http://purl.org/dc/elements/1.1/" xmlns:cc="http://creativecommons.org/ns#" xmlns:rdf="http://www.w3.org/1999/02/22-rdf-syntax-ns#" xmlns:inkscape="http://www.inkscape.org/namespaces/inkscape" width="777" height="480" style="">                                    <title>my vector image</title>                                    <!-- Created with Vector Paint - http://www.vectorpaint.yaks.com/ https://chrome.google.com/webstore/detail/hnbpdiengicdefcjecjbnjnoifekhgdo -->                                    <rect id="backgroundrect" width="100%" height="100%" x="0" y="0" fill="#FFFFFF" stroke="none"/>                                <g class="currentLayer" style=""><title>Layer 1</title><path fill="#000000" stroke="#222222" stroke-width="2" stroke-linejoin="round" stroke-dashoffset="" fill-rule="nonzero" marker-start="" marker-mid="" marker-end="" id="svg_5" d="M174.92036515814314,279.43617206398704 C174.82179951034627,279.4357367139968 174.71517366272954,279.4608421634356 174.6509699641646,279.54157231163117 C174.6009698652822,279.6010861603009 174.5483601664581,279.66426590888875 174.5368582167152,279.74395910710746 C174.51095526729418,279.8847236039611 174.5122118172661,280.03364625063244 174.55506536630824,280.1709825975627 C174.5798969157532,280.23918244603834 174.63732581446956,280.28849884493604 174.67195026369566,280.35156279352645 C174.7176986626731,280.41759809205047 174.7393262121897,280.4978710902562 174.7332636123252,280.5779142384671 C174.85411800962387,280.5779142384671 174.97497225692257,280.5779142384671 175.0958266042213,280.5779142384671 C175.09622280421243,280.45821324114263 175.1705583525509,280.3597809933428 175.23681095107003,280.26676794542175 C175.2830675000361,280.212041896645 175.3129937993672,280.1457462981268 175.32354549913137,280.07485909971126 C175.34393384867565,279.947810552551 175.3485620485722,279.81185450558985 175.3013670996271,279.69002660831296 C175.2565570506287,279.59681611039633 175.20165475185584,279.49452871268267 175.09671475420143,279.45920266347224 C175.04044440545917,279.43865096393165 174.97972805681627,279.435189414009 174.92036520814315,279.436172113987 L174.92036515814314,279.43617206398704 zM174.73548501227555,280.5697138386504 C174.85718790955528,280.5697138386504 174.978890756835,280.5697138386504 175.10059350411473,280.5697138386504 C175.0787536046029,280.6144109376513 175.05105400522203,280.66341418655605 175.06638560487934,280.7141609354218 C175.04608645533307,280.7582835344355 175.07207155475226,280.80221848345354 175.0386674054989,280.84259368255107 C175.0263671557738,280.89792863131424 174.95633875733907,280.9022389312179 174.90943155838752,280.903753331184 C174.85874125952054,280.90938063105824 174.80239651077994,280.8953069813728 174.78306206121212,280.84249908255316 C174.74284491211102,280.8142585831844 174.79131776102759,280.77985933395325 174.76015586172412,280.7481124846629 C174.79608891092093,280.7091020855348 174.73342811232152,280.68870468599073 174.75571701182332,280.6463595369372 C174.74959441196017,280.6174336875838 174.72705281246402,280.60393033788563 174.73548501227555,280.5697137886504 L174.73548501227555,280.5697138386504 zM174.73469176229327,280.5698383386476 C174.856394559573,280.5698383386476 174.97809745685274,280.5698383386476 175.09980030413246,280.5698383386476 C175.09062990433742,280.61326553767697 175.05096765522396,280.65432268675926 175.0660469548869,280.6980293857823 C175.0746283546951,280.73431518497125 175.03892390549316,280.7640176343074 175.06034590501434,280.8023350334509 C175.0440270053791,280.84830703242335 175.01136315610918,280.90022778126286 174.95581305735084,280.90007993126613 C174.90215155855026,280.9001711812641 174.8293009101786,280.9179859808659 174.7960501609218,280.8644875820617 C174.7834747112029,280.8322489827823 174.74286616211054,280.81291913321434 174.77404541141365,280.7779345339963 C174.73538496227778,280.7489380846444 174.79997301083412,280.7059971356042 174.75028761194469,280.68688783603136 C174.77391171141664,280.6411219870543 174.7248034625143,280.6147879876429 174.73469176229327,280.56983828864765 L174.73469176229327,280.56983828864765 L174.73469176229327,280.5698383386476 zM174.73316411232742,280.56887793866906 C174.85486700960715,280.56887793866906 174.97656985688687,280.56887793866906 175.0982727541666,280.56887793866906 C175.0891023543716,280.6123051376984 175.0494402052581,280.65336233678073 175.06451955492105,280.6970690858038 C175.07310070472923,280.73335478499274 175.0373963055273,280.7630572343288 175.05881840504847,280.8013746334724 C175.0377129055202,280.83484783272417 175.01511160602539,280.88950388150255 174.97088285701398,280.8934321314147 C174.92234100809898,280.89400573140193 174.87379905918397,280.8945791313891 174.825257160269,280.89515288137625 C174.79199806101238,280.85949568217325 174.74455331207284,280.81787473310357 174.77062246149015,280.7703312841663 C174.73384386231223,280.74456208474226 174.79947541084525,280.70285898567437 174.74876001197882,280.6859273860528 C174.7723841614508,280.64016153707576 174.72327581254845,280.61382768766435 174.73316411232742,280.5688779886691 L174.73316411232742,280.5688779886691 L174.73316411232742,280.56887793866906 zM174.83294126009721,280.88917603150986 C174.88451575894445,280.88917603150986 174.93609035779167,280.88917603150986 174.98766485663887,280.88917603150986 C174.97095035701247,280.9012623812397 174.9608344072386,280.9294104306106 174.93664160777934,280.9232934807473 C174.9117684083353,280.92134888079073 174.88383260895972,280.92620758068216 174.8608368094737,280.9200923308188 C174.85153830968156,280.9097868310492 174.8422397598894,280.89948138127954 174.83294131009723,280.88917603150986 L174.83294126009721,280.88917603150986 zM174.8890950588421,280.5665059887221 C174.87125865924077,280.3040122445893 174.85304875964778,280.19273134707663 174.78589136114888,280.0338815506272 C174.71873396264996,279.87503175417777 174.7714534614716,279.9280308529931 174.9215087581176,279.91084885337716 C175.0715640547636,279.89366690376124 174.9888541066123,279.96038305227 174.98891515661094,280.0830231495288 C174.98897620660958,280.2056632967876 174.9976596564155,280.2671426954134 175.0074129061975,280.3735644430347 C174.99777390641293,280.47661719073125 175.01641710599623,280.47731949071556 174.99345910650936,280.5598498388709 " style="color: rgb(0, 0, 0);" class=""/><path fill="#ebeb1a" stroke="#222222" stroke-width="2" stroke-linejoin="round" stroke-dashoffset="" fill-rule="nonzero" marker-start="" marker-mid="" marker-end="" id="svg_7" d="M385.69143782626793,335.7810597104525 C374.34328580802884,332.7296056688671 367.76897976443047,320.18441507937496 368.54445805080104,308.80383249663123 C368.2539442393287,293.9386613244994 369.60700854397936,278.2967116658118 362.59418684661955,264.6283586112774 C358.59696850020276,254.42301877383773 351.78766378302646,245.4126031072899 348.94604125285366,234.7775326193976 C345.40993372215075,218.27793750561787 349.7777795020051,199.57731598095015 362.9383280501478,188.500500321564 C377.78032520750554,175.6094854766631 401.48186674608985,173.92928790203962 417.81996027052713,184.88586723330874 C429.3433387649553,192.93150905022372 437.65771627330776,206.2015410309818 437.34883225486067,220.68226705504185 C438.7009655284005,231.50257984946296 434.4879277493113,241.68001814210197 429.53175377841166,250.98184126534818 C425.98085890528876,258.47139820024194 421.833930756058,265.8002950853551 418.61094504059054,273.3733614024033 C417.76128604775755,288.9009518253357 418.24858131088695,304.5709657390182 415.9439711052253,319.96499712280087 C412.10491889247754,331.89360717855124 397.63699719412244,340.00387748621654 385.69143782626793,335.78105320204673 L385.69143782626793,335.7810597104525 zM415.6635959015168,308.0174671251945 C408.92878651511006,304.3377304324101 399.25090431184174,306.73011705327946 391.42267272476226,305.93792665674385 C385.02804284397877,307.2343819913594 373.66546947485676,303.2787929368271 370.2659538396454,309.21233922882095 C378.0404296165883,312.2950336284738 387.1770681194655,309.98419735897784 395.4537356573296,310.49421572966423 C402.07631405885866,309.8494928400339 409.69573784067484,311.10560906228665 415.6635959015168,308.01746061678915 L415.6635959015168,308.0174671251945 zM415.1592081913514,301.0932695536332 C416.1503453877865,291.7445663680569 401.56557607441795,296.51504063757744 395.6406995464309,295.1233542781179 C387.7987336452252,296.7322652606782 375.3189550461958,291.6794302214839 370.3869814633057,298.8623500251186 C373.30952022847083,306.0806365174482 386.343262339153,301.00409785657064 393.1875160380042,302.6056478297581 C400.48622207489285,302.3434891583002 408.05827242536753,302.8708068772727 415.1592017704477,301.0932695536332 L415.1592081913514,301.0932695536332 zM415.25001261884404,284.7135267718985 C417.1753849585086,266.50201210324263 428.1606852583237,251.33861917130827 434.5216631800872,234.679711248195 C439.7515988233457,214.7342135217703 429.39386486026916,191.94740522903098 410.64129945895155,183.57513245169758 C391.9760005668974,174.19834548590273 367.1077807313849,181.28194047610145 356.559403701086,199.6555535526908 C346.3959662997323,214.83263366650232 348.335586625863,235.45404908177267 358.269072184357,250.21363435204017 C365.35686435939994,263.1127391480037 371.01183175755847,277.6086232541349 370.0906567335139,292.62022709630537 C384.80325340810936,292.62022709630537 399.5158565036114,292.62022709630537 414.2284660200165,292.62022709630537 C414.5689986753692,289.98469937194994 414.9094157544461,287.3489959205812 415.25001261884404,284.7135267718985 zM382.67877524945857,258.9127463588511 C376.84958303617304,248.63906172972622 370.8654865085566,238.28620882653485 366.8063256991196,227.15205409327712 C370.4557686102251,222.36363614309596 371.5174137559103,217.0298461503416 372.65110144695194,211.40369196492207 C382.8940039589436,209.36431488181742 371.34729831948204,223.23541786021462 381.0180533190634,223.5480036763169 C389.60232069453343,227.33384694360333 385.8365309989467,205.17789212320042 392.96850541593403,213.16406661684724 C387.8489258535184,221.92883544286212 403.02472013770415,230.64812351425368 403.5816822116287,218.1097146858269 C402.8459878478125,208.64262355999023 412.7543355662795,210.4163664818065 408.89127559265415,219.00496572194635 C409.2101184335488,223.42309431130988 416.30673293099,224.68971510396332 416.42823570156116,228.24316264925918 C411.3193790491962,239.47572451043345 406.87868811095467,251.07247084579035 400.8292203574656,261.82573402170596 C399.46755204115846,257.6623640439821 406.1847745709028,247.22757679334444 408.3311929592764,241.100743802621 C412.4729908060351,235.8046179665653 416.03208517384695,221.53199828609016 405.2346733733433,223.47750460161222 C398.9712225657892,233.38001472643367 390.54554510367115,217.2354858073247 384.41275327611015,226.72555812156676 C379.2066520293178,228.29965563010202 371.0185929697039,217.58647773863137 369.508357771532,227.8874000549431 C373.4293728266559,240.12225673747352 381.58813330031484,250.5494616928715 385.8569366325616,262.6580227195014 C384.4084191657629,261.7923523974256 383.5835962304551,260.2736088983438 382.67877524945857,258.9127398504418 L382.67877524945857,258.9127463588511 zM374.49686741608576,214.07349296543987 C371.6622821969387,212.6712109178737 375.691617906269,221.52830151038563 374.4968096279488,214.07349296543987 L374.49686741608576,214.07349296543987 zM391.43913592318523,215.1196414394357 C387.759546866764,208.80748804128913 389.73297325361835,222.7782607787393 391.43913592318523,215.1196414394357 zM407.8610094058946,215.1196414394357 C404.181420349473,208.80748804128913 406.15482105271326,222.7782607787393 407.8610094058946,215.1196414394357 zM331.40953090192346,168.47826195722814 C324.9059318556068,161.7877682976456 317.7170040181812,155.50984261680563 312.0610092753479,148.13508098099854 C326.19091531280594,159.99088798563287 339.1237914390829,173.34306258288572 351.8575553254704,186.7286773800889 C355.23893190625796,191.43848677928324 345.9585229369739,182.33048404421606 344.23129328065875,180.80378076223604 C339.9095752767257,176.74677118691739 335.6444639644076,172.6280944464535 331.40952448101996,168.47826195722814 L331.40953090192346,168.47826195722814 zM431.83816825816183,187.6070781480741 C442.8308397560208,173.72357665256715 453.08725185049406,159.16868732013054 464.93896970315933,146.02473621781226 C462.95442231019314,151.6838619978084 456.5660078646948,158.4554178781703 452.54921218130664,164.28380131481754 C445.84119080730915,172.74303293051165 439.57095310399535,181.68711490343188 431.90016208841354,189.27164252684994 C430.9427667436576,190.2974001587964 429.51313957707384,187.86781798660323 431.83827099262834,187.6070781480741 L431.83817467906556,187.6070781480741 L431.83816825816183,187.6070781480741 zM408.02778597212773,174.43599349309167 C411.8258471323276,163.42439208117258 417.3350022165348,152.94264666731644 423.4812394175367,143.08751124382218 C423.3383935613334,148.55464549826502 416.81985307089474,158.9166882734573 413.68663801734147,165.69572231453117 C411.9141987744067,168.4236694315014 410.41919396104714,172.7741756624607 408.02778597212773,174.43599349309167 zM359.38995017147874,160.3140239309966 C356.74424869179705,156.40230805432947 348.77998382789303,147.29399942409145 350.2670331409228,146.05186977047615 C357.94561271332765,154.68158262351886 365.75532641263226,163.58878795709785 371.27124270898514,173.7941668449835 C366.57388254541917,170.1424032894868 363.1939378262736,164.86804807795806 359.3899437505752,160.3140239309966 L359.38995017147874,160.3140239309966 zM389.7968869342342,157.23546237037755 C389.2614348894487,153.5618305642287 390.9236400487175,136.02472363377967 391.84706881014307,147.93278013728275 C391.8503498922014,155.39373261931632 392.6186560285562,163.79293718866487 390.5698546470537,170.58380351535843 C389.69250871521956,166.21781378193063 389.9053681110444,161.67254995204527 389.7968869342342,157.23546237037755 z" style="color: rgb(0, 0, 0);" class="" fill-opacity="1"/></g></svg>