<svg xmlns="http://www.w3.org/2000/svg" xmlns:se="http://svg-edit.googlecode.com" xmlns:xlink="http://www.w3.org/1999/xlink" xmlns:dc="http://purl.org/dc/elements/1.1/" xmlns:cc="http://creativecommons.org/ns#" xmlns:rdf="http://www.w3.org/1999/02/22-rdf-syntax-ns#" xmlns:inkscape="http://www.inkscape.org/namespaces/inkscape" width="777" height="480" style="">                                    <title>my vector image</title>                                    <!-- Created with Vector Paint - http://www.vectorpaint.yaks.com/ https://chrome.google.com/webstore/detail/hnbpdiengicdefcjecjbnjnoifekhgdo -->                                    <rect id="backgroundrect" width="100%" height="100%" x="0" y="0" fill="#FFFFFF" stroke="none"/>                                <g class="currentLayer" style=""><title>Layer 1</title><path fill="#000000" stroke="#222222" stroke-width="2" stroke-linejoin="round" stroke-dashoffset="" fill-rule="nonzero" marker-start="" marker-mid="" marker-end="" id="svg_8" d="M282.22227895834084,299.97285979157084 C282.22227895834084,295.1877438480871 282.22227895834084,290.40261374448306 282.22227895834084,285.61749780099905 C342.95240610070425,285.61749780099905 403.6825332430705,285.61749780099905 464.4126603854367,285.61749780099905 C464.4126603854367,295.1877438480871 464.4126603854367,304.757982815115 464.4126603854367,314.3282147020866 C403.6825332430705,314.3282147020866 342.95240610070425,314.3282147020866 282.22227895834084,314.3282147020866 C282.22227895834084,309.54309875860105 282.22227895834084,304.757975735054 282.22227895834084,299.9728527115106 L282.22227895834084,299.97285979157084 zM469.7144789401633,299.73361036645133 C469.7144789401633,294.8687233744111 469.7144789401633,290.0038505424939 469.7144789401633,285.1389918706959 C472.9277457436864,285.1389918706959 476.1409626270626,285.1389918706959 479.35418664187773,285.1389918706959 C479.35418664187773,294.86873045446833 479.35418664187773,304.59847611830816 479.35418664187773,314.3282217821433 C476.1409626270626,314.3282217821433 472.9277457436864,314.3282217821433 469.7144789401633,314.3282217821433 C469.7144789401633,309.46333479010406 469.7144789401633,304.59847611830816 469.7144789401633,299.73361036645133 zM485.1379984262839,299.73361036645133 C485.1379984262839,294.8687233744111 485.1379984262839,290.0038505424939 485.1379984262839,285.1389918706959 C488.3512438354617,285.1389918706959 491.56448211317695,285.1389918706959 494.77770612798986,285.1389918706959 C494.77770612798986,294.86873045446833 494.77770612798986,304.59847611830816 494.77770612798986,314.3282217821433 C491.56448211317695,314.3282217821433 488.3512438354617,314.3282217821433 485.1379984262839,314.3282217821433 C485.1379984262839,309.46333479010406 485.1379984262839,304.59847611830816 485.1379984262839,299.73361036645133 zM469.7144789401633,272.5452623659322 C471.3764202930526,263.7318394514803 466.40073002314176,253.17653742172354 456.23875780041567,253.48835039318658 C444.4641938504678,252.84166469121635 432.50765672162714,253.3717488667226 420.8047424377218,252.61827460299207 C409.45144743094534,248.76272112317002 403.2319968340212,236.4239941795011 404.83672970467967,224.9422519930288 C402.9797503587144,221.6272965794699 395.02881252025276,222.5753804830037 391.76012722816046,218.94214092212238 C375.82755066419634,209.89390070080893 373.6860906943526,185.63080031002443 387.02805438051087,173.37528532461033 C391.7017349254295,168.59832561153115 400.65148921914744,164.67946222524407 406.5744427010103,165.89539900079077 C406.5744427010103,168.92111267771583 406.5744427010103,171.94683343470726 406.5744427010103,174.97254003156897 C394.3319344755009,175.10821524266976 385.03179783958683,188.22490638146394 388.61826762142357,199.71759434241446 C391.4220323722522,211.24971824376274 403.91295035362987,214.70996359141367 414.34099693087524,214.87140314490776 C421.00440160961017,220.21093743394084 410.2507402118573,229.41750198185656 416.0417119708466,236.39900156376947 C419.9620833166903,245.87732009737925 431.5836491642022,242.78517420703244 439.6862016040427,243.5350588797778 C451.3268084198273,244.2309014460531 465.51635192667743,241.49505963120217 473.9638596761434,251.63290001757144 C481.2070867991367,259.48218852994734 478.9826452911242,270.6209300757553 479.35418664187773,280.3538688471529 C476.1409626270626,280.3538688471529 472.9277457436864,280.3538688471529 469.7144789401633,280.3538688471529 C469.7144789401633,277.75100474012055 469.7144789401633,275.14812647296316 469.7144789401633,272.5452552858734 L469.7144789401633,272.5452623659322 zM485.0072219182979,268.98920255124006 C485.76617922480875,256.71121545185605 482.19743109323065,243.20902206554055 471.5809573759301,235.81460623947424 C461.43090893558826,228.15373939349342 448.27411331738296,230.50786679351535 436.38337093511126,230.11008772001827 C428.9375036946241,223.552074913499 441.1607570083977,216.1418351508424 439.84703716869035,208.2455562728629 C440.67657442393386,197.9002488557124 433.5279744950016,187.81060952539738 423.2101729846784,185.58851110499992 C417.31569537786777,185.9344216507825 415.0441649134619,184.3761001998842 416.214150402708,178.83313451490196 C414.3830154271727,171.28452203785847 425.48397838123304,176.65125084162594 429.1583575323424,177.31304539401256 C442.57224187960264,182.09117331717812 451.46958002469745,196.46655772057727 449.3404788556206,210.54545040476344 C448.9942256222997,215.5049978138814 444.1475789183328,222.57562828514543 452.7423796111986,220.61634173325626 C469.4509576443066,219.74150814198944 485.4261374833892,230.51852228548762 491.33415058000924,245.97253275921798 C495.68109666695045,256.9004513252765 494.57910241051434,268.8471057247108 494.7777132594466,280.35384760697025 C491.6044467522256,280.35384760697025 488.4311873764316,280.35384760697025 485.2579208692183,280.35384760697025 C485.17436881513504,276.565653828577 485.09077397237957,272.7773184489621 485.0072290497374,268.98920255124006 L485.0072219182979,268.98920255124006 z" style="color: rgb(244, 244, 48);" class="selected" fill-opacity="1"/></g></svg>