<svg xmlns="http://www.w3.org/2000/svg" xmlns:se="http://svg-edit.googlecode.com" xmlns:xlink="http://www.w3.org/1999/xlink" xmlns:dc="http://purl.org/dc/elements/1.1/" xmlns:cc="http://creativecommons.org/ns#" xmlns:rdf="http://www.w3.org/1999/02/22-rdf-syntax-ns#" xmlns:inkscape="http://www.inkscape.org/namespaces/inkscape" width="777" height="480" style="">                                    <title>my vector image</title>                                    <!-- Created with Vector Paint - http://www.vectorpaint.yaks.com/ https://chrome.google.com/webstore/detail/hnbpdiengicdefcjecjbnjnoifekhgdo -->                                    <rect id="backgroundrect" width="100%" height="100%" x="0" y="0" fill="#FFFFFF" stroke="none"/>                                <g class="currentLayer" style=""><title>Layer 1</title><path fill="#1aeb1a" stroke="#222222" stroke-width="2" stroke-linejoin="round" stroke-dashoffset="" fill-rule="nonzero" marker-start="" marker-mid="" marker-end="" id="svg_1" d="M413.20883577775635,205.92536803148465 L389.35744312977164,202.00676062342578 L398.14480239447886,197.75024927393505 C402.97782815097816,195.40912816682706 407.35993306583487,193.14277006310311 407.88278200586,192.71389575391723 C409.18155971022884,191.64859484319598 393.0072270108417,168.4627576300445 390.9787207839696,168.48195159341333 C390.0870166651872,168.49132964497431 383.8734716053442,177.4693337854577 377.1708647905733,188.43521037728638 C370.4197540622507,199.48027432156343 363.7008947378845,207.89193564095658 362.1068173175607,207.29432175595082 C343.23991507986807,200.22203572104863 327.84594941142416,193.06643860510246 327.84594941142416,191.3688413566693 C327.84594941142416,190.20929592918202 333.76558963910065,179.8656187484718 341.000781400945,168.38287100824664 L354.1556204353335,147.50518467911994 L390.02273929303817,147.50518467911994 L425.8898581507427,147.50518467911994 L435.25217019637984,161.24121353270428 L444.61455973556053,174.97724238628874 L454.381585336132,170.32895721451885 C461.15229488616865,167.10661295161285 463.73039941541236,166.64390576930447 462.7852247514072,168.82041756441595 C454.46341147351814,187.98600497513488 442.0459516878662,210.33341823783485 439.83868899004835,210.11663820415853 C438.31052335116084,209.96666780191563 426.32711899407354,208.08056844949522 413.208842822624,205.92537456671215 L413.20883577775635,205.92536803148465 zM301.9692629962014,291.4312464371656 C292.89243716592716,276.9310011421706 284.7574960464803,263.35460829240316 283.8916959059302,261.2613945078804 C283.0031408429731,259.1134547276986 285.59196061586425,251.4381501745913 289.835006888804,243.64087866937246 L297.3525428550534,229.82595654858048 L289.6677405969434,225.61479314318802 C279.440854217722,220.0106655872424 283.24226478454005,218.28463356365836 310.3712961816597,216.21431268130823 L331.8120830728927,214.57812043110926 L340.22216149717104,235.19196655283844 C344.8477722612533,246.5295734239938 349.22412856413354,257.269997735163 349.947502616045,259.0597155514024 C350.7019022649474,260.9261896154345 347.09142874518733,259.68432646149375 341.4802621359121,256.1472717797969 L331.69784349959485,249.98077482112268 L324.86896447763417,262.2094076894289 C321.1131482940414,268.93526784615005 317.9868333013469,275.18761155416456 317.92171054508356,276.10350409221377 C317.8564328017327,277.0193966302628 329.38370311514007,278.0675033572512 343.5376593648866,278.4325546340026 L369.27206058882325,279.09625927540907 L370.9514865803424,296.5588448044955 C371.8752096224499,306.1633223949273 372.44005301834756,314.149801808711 372.2068185861094,314.3066015237631 C371.97359824360666,314.4632443933535 359.78799914100733,315.3124710749759 345.1277423452709,316.193556990995 L318.47268259664077,317.7954719725971 L301.9692629962014,291.4312268314832 L301.9692629962014,291.4312464371656 zM403.55261889995273,317.0515996946074 C387.970167798382,295.2339842604342 387.6993208179301,296.856825040711 410.85975284991486,273.2736590618469 L425.72717806770174,258.1348566811293 L424.14812735000766,269.1978271489438 L422.5690061836374,280.2608041519863 L439.2296390498461,280.2608041519863 C448.39296880960507,280.2608041519863 455.89035645446614,279.58101631553365 455.89035645446614,278.7502712574751 C455.89035645446614,277.9193889596376 450.8061882122431,268.58756106336546 444.59225568468116,258.012608714232 C438.37832315711915,247.4376563650985 433.31774817654974,237.89871403672396 433.3464841915646,236.81494457289403 C433.4110010892128,234.38482673675747 465.9836157847043,214.31811640229446 467.5321199564056,215.75457902754368 C468.14568565675114,216.3237646726264 474.1904990922689,226.46117046559047 480.9650551400252,238.28238417681825 L493.28259052337955,259.77517919515174 L476.70900404146215,284.57458370066007 C467.59339621494934,298.21408724305684 458.8353154200637,310.7042729891115 457.2466977721439,312.3303813831723 C455.65789695766614,313.9564897772332 446.7742413974848,315.94394397401425 437.505161129908,316.7468032160378 C419.8127651317981,318.27949706723405 420.29439455138873,317.91033513234186 417.70028408291626,331.92541166787555 C417.2463198584625,334.3781348561717 411.9526583878751,328.81282001675584 403.55261889995273,317.0515866241522 L403.55261889995273,317.0515996946074 z" style="color: rgb(0, 0, 0);" class="selected" fill-opacity="1"/></g></svg>