<svg xmlns="http://www.w3.org/2000/svg" xmlns:se="http://svg-edit.googlecode.com" xmlns:xlink="http://www.w3.org/1999/xlink" xmlns:dc="http://purl.org/dc/elements/1.1/" xmlns:cc="http://creativecommons.org/ns#" xmlns:rdf="http://www.w3.org/1999/02/22-rdf-syntax-ns#" xmlns:inkscape="http://www.inkscape.org/namespaces/inkscape" width="777" height="480" style="">                                    <title>my vector image</title>                                    <!-- Created with Vector Paint - http://www.vectorpaint.yaks.com/ https://chrome.google.com/webstore/detail/hnbpdiengicdefcjecjbnjnoifekhgdo -->                                    <rect id="backgroundrect" width="100%" height="100%" x="0" y="0" fill="#FFFFFF" stroke="none"/>                                <g class="currentLayer" style=""><title>Layer 1</title><path fill="#4a90d6" stroke="#222222" stroke-width="2" stroke-linejoin="round" stroke-dashoffset="" fill-rule="nonzero" marker-start="" marker-mid="" marker-end="" id="svg_3" d="M181.19945906638864,137.94351066139706 L181.8809866278091,137.94377086738365 L181.85887089978044,137.97645697826826 L181.2218359054174,137.9756763895024 L181.19945903719463,137.94351066139706 L181.19945906638864,137.94351066139706 zM181.20414259898368,137.50871127478183 L181.87656327200668,137.507930686016 L181.89607767001885,137.541461641627 L181.18436770304504,137.54172184761364 L181.20414259898368,137.50871127478183 zM181.13778289067827,137.72658338515163 L181.94240224720505,137.72580279638578 L181.9413621823022,137.75933378119078 L181.1383032734575,137.75881339841158 L181.13778289067827,137.72658338515163 zM181.94306830796847,137.72969336196542 C181.94306830796847,137.95167633572424 181.76244926949698,138.13226174272523 181.54040198138966,138.13226174272523 C181.31845062471638,138.13226174272523 181.13786524690943,137.95164369684923 181.13786524690943,137.72969336196542 C181.13786524690943,137.50774194690422 181.31848326359142,137.3271565690972 181.54040198138966,137.3271565690972 C181.76244929869097,137.3271239594162 181.94306830796847,137.50774194690422 181.94306830796847,137.72969336196542 zM181.5404335984752,137.29489394615626 C181.30076485033075,137.29489394615626 181.10573212848507,137.48992669719593 181.10573212848507,137.72966066470246 C181.10573212848507,137.96942730027797 181.30076487952473,138.16446002212365 181.5404335984752,138.16446002212365 C181.78023284373177,138.16446002212365 181.97523301428438,137.96942730027797 181.97523301428438,137.72966066470246 C181.97523301428438,137.48992669719593 181.78023287292575,137.29489394615626 181.5404335984752,137.29489394615626 zM181.66242302871512,137.72969336196542 C181.66242302871512,137.96690064847468 181.59815676267243,138.13226174272523 181.5404335984752,138.13226174272523 C181.48277574122199,138.13226174272523 181.4185104969688,137.96690064847468 181.4185104969688,137.72969336196542 C181.4185104969688,137.4924207685122 181.48274406574848,137.3271565690972 181.5404335984752,137.3271565690972 C181.5981241821854,137.3271239594162 181.66242302871512,137.4924207685122 181.66242302871512,137.72969336196542 zM181.5404335984752,137.29489394615626 C181.4403105212457,137.29489394615626 181.38628048370884,137.5189172875134 181.38628048370884,137.72966066470246 C181.38628048370884,137.940468385434 181.4403105212457,138.16446002212365 181.5404335984752,138.16446002212365 C181.64055769749416,138.16446002212365 181.69468565165607,137.94043580494696 181.69468565165607,137.72966066470246 C181.69465301278106,137.5189172875134 181.64055769749416,137.29489394615626 181.5404335984752,137.29489394615626 zM181.82613226891715,137.72969336196542 C181.82613226891715,137.95167633572424 181.69792405280907,138.13226174272523 181.5404335984752,138.13226174272523 C181.38297587059833,138.13226174272523 181.25483287385228,137.95164369684923 181.25483287385228,137.72969336196542 C181.25483287385228,137.50774194690422 181.38297587059833,137.3271565690972 181.5404335984752,137.3271565690972 C181.69792405280907,137.3271239594162 181.82613226891715,137.50774194690422 181.82613226891715,137.72969336196542 zM181.5404335984752,137.29489394615626 C181.36522481846265,137.29489394615626 181.22260288978634,137.48992669719593 181.22260288978634,137.72966066470246 C181.22260288978634,137.96942730027797 181.36522481846265,138.16446002212365 181.5404335984752,138.16446002212365 C181.7157076562378,138.16446002212365 181.85829793863456,137.96942730027797 181.85829793863456,137.72966066470246 C181.85829793863456,137.48992669719593 181.7157076562378,137.29489394615626 181.5404335984752,137.29489394615626 z" style="color: rgb(0, 0, 0);" class=""/><path fill="#0b0bd5" stroke="#222222" stroke-width="2" stroke-linejoin="round" stroke-dashoffset="" fill-rule="nonzero" marker-start="" marker-mid="" marker-end="" id="svg_5" d="M383.70811624436436,147.56521509225968 L383.70811624436436,165.3983348545308 C335.31320858115123,167.9130550621577 297.1956818140447,194.45506466318477 297.1956560509516,226.82352514679786 C297.1956560509516,220.99009543127937 307.7276213923121,216.25575650469432 320.70447850589346,216.25575650469432 C333.68133561947485,216.25575650469432 344.2133009608353,220.99009543127937 344.2133009608353,226.82352514679786 C344.2133009608353,220.99009543127937 354.7452663021958,216.25575650469432 367.72212341577716,216.25575650469432 C373.9022063927848,216.25575650469432 379.510567689235,217.3629902706883 383.70811624436436,219.11786214555264 L383.70811624436436,306.0818352013361 C383.70811624436436,309.9708124723547 380.33790433877056,313.12703038096475 376.18529949955627,313.12703038096475 C372.0327139826619,313.12703038096475 368.6624763139749,309.9708124723547 368.6624763139749,306.0818352013361 L368.6624763139749,302.55924364335664 L353.61682994281205,302.55924364335664 L353.61682994281205,306.0818352013361 C353.61682994281205,317.74865240952926 363.72749142268697,327.2173905810478 376.18529949955627,327.2173905810478 C388.64308181333246,327.2173905810478 398.7537754970737,317.74865240952926 398.7537754970737,306.0818352013361 L398.7537754970737,219.11786214555264 C402.95131761142994,217.3629902706883 408.55969178942655,216.25575650469432 414.739768325661,216.25575650469432 C427.71662543924236,216.25575650469432 438.24859078060274,220.99009543127937 438.24859078060274,226.82352514679786 C438.24859078060274,220.99009543127937 448.7805561219633,216.25575650469432 461.7574132355446,216.25575650469432 C474.73427034912606,216.25575650469432 485.2662356904866,220.99009543127937 485.2662356904866,226.82352514679786 C485.2662356904866,194.45504656768023 447.14871536415325,167.9130550621577 398.7537754970737,165.3983348545308 L398.7537754970737,147.56521509225968 L383.70811624436436,147.56521509225968 z" style="color: rgb(0, 0, 0);" class="" fill-opacity="1"/></g></svg>