<svg xmlns="http://www.w3.org/2000/svg" xmlns:se="http://svg-edit.googlecode.com" xmlns:xlink="http://www.w3.org/1999/xlink" xmlns:dc="http://purl.org/dc/elements/1.1/" xmlns:cc="http://creativecommons.org/ns#" xmlns:rdf="http://www.w3.org/1999/02/22-rdf-syntax-ns#" xmlns:inkscape="http://www.inkscape.org/namespaces/inkscape" width="777" height="480" style="">                                    <title>my vector image</title>                                    <!-- Created with Vector Paint - http://www.vectorpaint.yaks.com/ https://chrome.google.com/webstore/detail/hnbpdiengicdefcjecjbnjnoifekhgdo -->                                    <rect id="backgroundrect" width="100%" height="100%" x="0" y="0" fill="#FFFFFF" stroke="none"/>                                <g class="currentLayer" style=""><title>Layer 1</title><path fill="#f4f430" stroke="#222222" stroke-width="2" stroke-linejoin="round" stroke-dashoffset="" fill-rule="nonzero" marker-start="" marker-mid="" marker-end="" id="svg_2" d="M332.41410562135644,285.1275696428111 Q388.49998284968507,323.64631913597464 444.4549235119639,285.1275696428111 M344.5696406486438,209.05235236602167 C344.5696406486438,203.099273824286 349.3955577288864,198.2733567440407 355.3486293519051,198.2733567440407 C361.3017009749341,198.2733567440407 366.1276180551822,203.099273824286 366.1276180551822,209.05235236602167 C366.1276180551822,215.0054239890458 361.3017009749341,219.83133415058617 355.3486293519051,219.83133415058617 C349.3955577288864,219.83133415058617 344.5696406486438,215.0054239890458 344.5696406486438,209.05235236602167 M410.87238223773005,209.05235236602167 C410.87238223773005,203.099273824286 415.6982993179776,198.2733567440407 421.65137094100754,198.2733567440407 C427.60444256402576,198.2733567440407 432.4303527255635,203.099273824286 432.4303527255635,209.05235236602167 C432.4303527255635,215.0054239890458 427.60444256402576,219.83133415058617 421.65137094100754,219.83133415058617 C415.69831315539903,219.83133415058617 410.87238223773005,215.0054239890458 410.87238223773005,209.05235236602167 M285.0217383454823,240.0000002151873 L285.0217383454823,240.0000002151873 C285.0217383454823,182.85054446022357 331.3505340134336,136.52174187356485 388.49999668710325,136.52174187356485 C445.6494662794891,136.52174187356485 491.97825502872433,182.85053754151326 491.97825502872433,240.0000002151873 C491.97825502872433,297.14946980756935 445.6494662794891,343.4782585568119 388.49999668710325,343.4782585568119 C331.3505409321383,343.4782585568119 285.0217383454823,297.14946980756935 285.0217383454823,240.0000002151873 zM285.0217383454823,240.0000002151873 L285.0217383454823,240.0000002151873 C285.0217383454823,182.85054446022357 331.3505340134336,136.52174187356485 388.49999668710325,136.52174187356485 C445.6494662794891,136.52174187356485 491.97825502872433,182.85053754151326 491.97825502872433,240.0000002151873 C491.97825502872433,297.14946980756935 445.6494662794891,343.4782585568119 388.49999668710325,343.4782585568119 C331.3505409321383,343.4782585568119 285.0217383454823,297.14946980756935 285.0217383454823,240.0000002151873 z" style="color: rgb(244, 244, 48);" class=""/></g></svg>