<svg xmlns="http://www.w3.org/2000/svg" xmlns:se="http://svg-edit.googlecode.com" xmlns:xlink="http://www.w3.org/1999/xlink" xmlns:dc="http://purl.org/dc/elements/1.1/" xmlns:cc="http://creativecommons.org/ns#" xmlns:rdf="http://www.w3.org/1999/02/22-rdf-syntax-ns#" xmlns:inkscape="http://www.inkscape.org/namespaces/inkscape" width="777" height="480" style="">                                    <title>my vector image</title>                                    <!-- Created with Vector Paint - http://www.vectorpaint.yaks.com/ https://chrome.google.com/webstore/detail/hnbpdiengicdefcjecjbnjnoifekhgdo -->                                    <rect id="backgroundrect" width="100%" height="100%" x="0" y="0" fill="#FFFFFF" stroke="none"/>                                <g class="currentLayer" style=""><title>Layer 1</title><path fill="#000000" stroke="#222222" stroke-width="2" stroke-linejoin="round" stroke-dashoffset="" fill-rule="nonzero" marker-start="" marker-mid="" marker-end="" id="svg_1" d="M389.042128713563,134.14179803899663 C386.82965761743037,134.14179803899663 384.861244015401,135.05002106300583 383.20041166445117,136.69746057718805 C381.5409838588944,138.34354520163004 380.16839543223557,140.70225217163352 379.0262162910136,143.64801654887435 C376.74217722342473,149.53872953205286 375.33717784805333,157.81384273456717 374.56865034013686,167.72405957037245 C373.8016337825559,177.61520863858055 373.6723730455253,189.1325375113462 373.9910345990784,201.46160849030298 C346.66158210626895,212.67331396311056 291.23236200952215,235.8224776254944 286.77967649916627,240.99119753356996 C280.8514380358595,247.8727605336705 282.76684069026794,255.75941762707845 285.1557666669462,260.99490309639924 L376.27974129725976,242.4481579943722 C378.20589794558737,266.61773806331223 380.9446124714318,290.5564335713556 383.33118335181575,309.3142364446826 C374.419811091743,311.9223069691026 357.7851700905719,317.07204423354915 354.35157447168945,320.2654696859624 C349.62150543593623,324.6646760668912 349.6215409042454,338.8718086553796 349.6215409042454,338.8718086553796 L386.916881304315,335.8384730017393 C387.79526837948424,341.96245401676265 388.3445945903479,345.5357593390641 388.3445945903479,345.5357593390641 L388.39909520733113,345.85820890893234 L388.6933687456244,345.85820890893234 L389.37997153331264,345.85820890893234 L389.67423797794027,345.85820890893234 L389.72873859491756,345.5357593390641 C389.72873859491756,345.5357593390641 390.277022037247,341.9623901737896 391.1564447872845,335.8384730017393 L428.4626881482084,338.8718086553796 C428.4626881482084,338.8718086553796 428.4627307101987,324.6646760668912 423.7326474871069,320.2654696859624 C420.2977679151204,317.0708099360938 403.6509825619727,311.9093965014585 394.7421356461316,309.3022197786386 C397.1237764303603,290.60198198494174 399.857660171322,266.7548869541932 401.7826889271423,242.6631740299349 L491.83862738755624,260.99489600273665 C494.22752498958357,255.75941053341597 496.1538802604907,247.87275344000096 490.22562760986636,240.99119043990407 C485.8280243968876,235.88644118962617 431.73818728778133,213.25214981430736 404.07143818732084,201.8914915944901 C404.4020029082726,189.40262165696123 404.2804955455058,177.72833838472008 403.50470412612594,167.72405247670986 L403.50470412612594,167.70016811157052 C402.7357864667092,157.80088261128276 401.32929032832885,149.53382781054228 399.0471594562405,143.648009455212 C397.90530662353956,140.70306084927847 396.5438907169503,138.3441126947123 394.8838670436587,136.69745348352126 C393.2230205053836,135.05001396934313 391.2546281843395,134.14179094533415 389.04217127553875,134.14179094533415 L389.042128713563,134.14179803899663 z" style="color: rgb(244, 244, 48);" class="selected" fill-opacity="1"/></g></svg>