<svg xmlns="http://www.w3.org/2000/svg" xmlns:se="http://svg-edit.googlecode.com" xmlns:xlink="http://www.w3.org/1999/xlink" xmlns:dc="http://purl.org/dc/elements/1.1/" xmlns:cc="http://creativecommons.org/ns#" xmlns:rdf="http://www.w3.org/1999/02/22-rdf-syntax-ns#" xmlns:inkscape="http://www.inkscape.org/namespaces/inkscape" width="777" height="480" style="">                                    <title>my vector image</title>                                    <!-- Created with Vector Paint - http://www.vectorpaint.yaks.com/ https://chrome.google.com/webstore/detail/hnbpdiengicdefcjecjbnjnoifekhgdo -->                                    <rect id="backgroundrect" width="100%" height="100%" x="0" y="0" fill="#FFFFFF" stroke="none"/>                                <g class="currentLayer" style=""><title>Layer 1</title><path fill="#ffffff" stroke="#222222" stroke-width="2" stroke-linejoin="round" stroke-dashoffset="" fill-rule="nonzero" marker-start="" marker-mid="" marker-end="" id="svg_1" d="M314.1559861302213,285.97419679732263 L462.730750024305,286.0301410306066 L457.90946434753374,293.0576481080147 L319.03419467760233,292.88982168486336 L314.15597976585735,285.97419679732263 L314.1559861302213,285.97419679732263 zM315.1770082999608,192.49241863541465 L461.76644706553094,192.32459221226347 L466.0206360981091,199.5337407310498 L310.8660300484146,199.5896849643338 L315.1770082999608,192.49241863541465 zM300.7104209575387,239.33487728699595 L476.11951324929225,239.1670508638447 L475.8927764214368,246.37620565933176 L300.82386574383287,246.26432346946444 L300.7104209575387,239.33487728699595 zM476.2647162113847,240.00352165850668 C476.2647162113847,287.7298150881856 436.88930057926456,326.5556402301226 388.48241981407676,326.5556402301226 C340.0964523486232,326.5556402301226 300.72837482806517,287.7227977368099 300.72837482806517,240.00352165850668 C300.72837482806517,192.28401334227794 340.1035677074493,153.45819447704162 388.48241981407676,153.45819447704162 C436.88930694362864,153.4511834023666 476.2647162113847,192.28401334227794 476.2647162113847,240.00352165850668 zM388.4893124201668,146.5217372198981 C336.2409079768645,146.5217372198981 293.72327224185756,188.45373834098623 293.72327224185756,239.99649175372974 C293.72327224185756,291.5462687945495 336.24091434122835,333.4782636389369 388.4893124201668,333.4782636389369 C440.7661655700464,333.4782636389369 483.27670503931864,291.5462687945495 483.27670503931864,239.99649175372974 C483.27670503931864,188.45373834098623 440.76617193441007,146.5217372198981 388.4893124201668,146.5217372198981 zM415.08332243744536,240.00352165850668 C415.08332243744536,291.0030391796018 401.0731109006663,326.5556402301226 388.4893124201668,326.5556402301226 C375.9197510216837,326.5556402301226 361.9097622376406,291.0030391796018 361.9097622376406,240.00352165850668 C361.9097622376406,188.98996315795955 375.91284568686586,153.45819447704162 388.4893124201668,153.45819447704162 C401.0660082705679,153.4511834023666 415.08332243744536,188.98996315795955 415.08332243744536,240.00352165850668 zM388.4893124201668,146.5217372198981 C366.66222368333297,146.5217372198981 354.8835363276904,194.6867092610676 354.8835363276904,239.99649175372974 C354.8835363276904,285.3201080947207 366.66222368333297,333.4782636389369 388.4893124201668,333.4782636389369 C410.3166239097369,333.4782636389369 422.1166573418579,285.31310329674636 422.1166573418579,239.99649175372974 C422.1095419830318,194.6867092610676 410.3166239097369,146.5217372198981 388.4893124201668,146.5217372198981 zM450.7723584899361,240.00352165850668 C450.7723584899361,287.7298150881856 422.8226371348036,326.5556402301226 388.4893124201668,326.5556402301226 C354.1631221574481,326.5556402301226 326.2276187912402,287.7227977368099 326.2276187912402,240.00352165850668 C326.2276187912402,192.28401334227794 354.1631221574481,153.45819447704162 388.4893124201668,153.45819447704162 C422.8226371348036,153.4511834023666 450.7723584899361,192.28401334227794 450.7723584899361,240.00352165850668 zM388.4893124201668,146.5217372198981 C350.29334706803706,146.5217372198981 319.201399245654,188.45373834098623 319.201399245654,239.99649175372974 C319.201399245654,291.5462687945495 350.29334706803706,333.4782636389369 388.4893124201668,333.4782636389369 C426.69950848994927,333.4782636389369 457.7845573418783,291.5462687945495 457.7845573418783,239.99649175372974 C457.7845573418783,188.45373834098623 426.69950848994927,146.5217372198981 388.4893124201668,146.5217372198981 z" style="color: rgb(0, 0, 0);" class="" fill-opacity="1"/><path fill="#4a90d6" stroke="#222222" stroke-width="2" stroke-linejoin="round" stroke-dashoffset="" fill-rule="nonzero" marker-start="" marker-mid="" marker-end="" id="svg_3" d="M181.19945906638864,137.94351066139706 L181.8809866278091,137.94377086738365 L181.85887089978044,137.97645697826826 L181.2218359054174,137.9756763895024 L181.19945903719463,137.94351066139706 L181.19945906638864,137.94351066139706 zM181.20414259898368,137.50871127478183 L181.87656327200668,137.507930686016 L181.89607767001885,137.541461641627 L181.18436770304504,137.54172184761364 L181.20414259898368,137.50871127478183 zM181.13778289067827,137.72658338515163 L181.94240224720505,137.72580279638578 L181.9413621823022,137.75933378119078 L181.1383032734575,137.75881339841158 L181.13778289067827,137.72658338515163 zM181.94306830796847,137.72969336196542 C181.94306830796847,137.95167633572424 181.76244926949698,138.13226174272523 181.54040198138966,138.13226174272523 C181.31845062471638,138.13226174272523 181.13786524690943,137.95164369684923 181.13786524690943,137.72969336196542 C181.13786524690943,137.50774194690422 181.31848326359142,137.3271565690972 181.54040198138966,137.3271565690972 C181.76244929869097,137.3271239594162 181.94306830796847,137.50774194690422 181.94306830796847,137.72969336196542 zM181.5404335984752,137.29489394615626 C181.30076485033075,137.29489394615626 181.10573212848507,137.48992669719593 181.10573212848507,137.72966066470246 C181.10573212848507,137.96942730027797 181.30076487952473,138.16446002212365 181.5404335984752,138.16446002212365 C181.78023284373177,138.16446002212365 181.97523301428438,137.96942730027797 181.97523301428438,137.72966066470246 C181.97523301428438,137.48992669719593 181.78023287292575,137.29489394615626 181.5404335984752,137.29489394615626 zM181.66242302871512,137.72969336196542 C181.66242302871512,137.96690064847468 181.59815676267243,138.13226174272523 181.5404335984752,138.13226174272523 C181.48277574122199,138.13226174272523 181.4185104969688,137.96690064847468 181.4185104969688,137.72969336196542 C181.4185104969688,137.4924207685122 181.48274406574848,137.3271565690972 181.5404335984752,137.3271565690972 C181.5981241821854,137.3271239594162 181.66242302871512,137.4924207685122 181.66242302871512,137.72969336196542 zM181.5404335984752,137.29489394615626 C181.4403105212457,137.29489394615626 181.38628048370884,137.5189172875134 181.38628048370884,137.72966066470246 C181.38628048370884,137.940468385434 181.4403105212457,138.16446002212365 181.5404335984752,138.16446002212365 C181.64055769749416,138.16446002212365 181.69468565165607,137.94043580494696 181.69468565165607,137.72966066470246 C181.69465301278106,137.5189172875134 181.64055769749416,137.29489394615626 181.5404335984752,137.29489394615626 zM181.82613226891715,137.72969336196542 C181.82613226891715,137.95167633572424 181.69792405280907,138.13226174272523 181.5404335984752,138.13226174272523 C181.38297587059833,138.13226174272523 181.25483287385228,137.95164369684923 181.25483287385228,137.72969336196542 C181.25483287385228,137.50774194690422 181.38297587059833,137.3271565690972 181.5404335984752,137.3271565690972 C181.69792405280907,137.3271239594162 181.82613226891715,137.50774194690422 181.82613226891715,137.72969336196542 zM181.5404335984752,137.29489394615626 C181.36522481846265,137.29489394615626 181.22260288978634,137.48992669719593 181.22260288978634,137.72966066470246 C181.22260288978634,137.96942730027797 181.36522481846265,138.16446002212365 181.5404335984752,138.16446002212365 C181.7157076562378,138.16446002212365 181.85829793863456,137.96942730027797 181.85829793863456,137.72966066470246 C181.85829793863456,137.48992669719593 181.7157076562378,137.29489394615626 181.5404335984752,137.29489394615626 z" style="color: rgb(0, 0, 0);" class=""/></g></svg>